# xmcd
#
# Track frame offsets:
#	150
#	14169
#	36239
#	54475
#	70720
#	88498
#	103516
#	121599
#	138764
#	158840
#	178299
#	200827
#	218455
#	239755
#	253369
#	266340
#	282206
#	296003
#
# Disc length: 4122 seconds
#
# Revision: 0
# Processed by: cddbd v1.5.2PL0 Copyright (c) Steve Scherf et al.
# Submitted via: EasyCDDAExtractor 2010.4.0.0
#
DISCID=17101812
DTITLE=Julio Iglesias - Coleccion de Oro
DYEAR=1900
DGENRE=
TTITLE0=Soy un truhan soy un señor
TTITLE1=Me Olvide de vivir
TTITLE2=Quijote
TTITLE3=Momentos
TTITLE4=Nathalie
TTITLE5=De niña a mujer
TTITLE6=Ni tengo ni te olvido
TTITLE7=Felicidades
TTITLE8=Que no se rompa la noche
TTITLE9=Lo mejor de tu vida
TTITLE10=Hey
TTITLE11=Por el amor de una mujer
TTITLE12=Begin the Beguine
TTITLE13=Por un poco de tu amor
TTITLE14=El Amor
TTITLE15=Como Tu
TTITLE16=Un dia tu , un dia yo
TTITLE17=Rio Rebelde
EXTD=
EXTT0=
EXTT1=
EXTT2=
EXTT3=
EXTT4=
EXTT5=
EXTT6=
EXTT7=
EXTT8=
EXTT9=
EXTT10=
EXTT11=
EXTT12=
EXTT13=
EXTT14=
EXTT15=
EXTT16=
EXTT17=
PLAYORDER=
